# xmcd
#
# Track frame offsets: 
#        150
#        12698
#        26205
#        40350
#        54321
#        68549
#        82274
#        96389
#        110101
#        124394
#        138186
#        151540
#        165696
#        179803
#        193915
#        207114
#        220161
#        233176
#        245743
#        259033
#        276716
#        294740
#        308582
#
# Disc length: 4292 seconds
#
# Revision: 0
# Processed by: cddbd v1.5.2PL0 Copyright (c) Steve Scherf et al.
# Submitted via: ExactAudioCopy v0.95b3
#
DISCID=6910c217
DTITLE=Fiddlin' John Carson - Complete Recorded Works Vol 1
DYEAR=1923
DGENRE=Folk
TTITLE0=The Little Old Log Cabin In The Lane
TTITLE1=The Old Hen Cackled And The Rooster's Going To Crow
TTITLE2=When You And I Were Young, Maggie
TTITLE3=You Will Never Miss Your Mother Until She Is Gone
TTITLE4=Be Kind To a Man When He's Down
TTITLE5=Billy In The Low Ground
TTITLE6=Casey Jones
TTITLE7=Old Sallie Goodman
TTITLE8=Fare You Well Old Joe Clark
TTITLE9=The Farmer Is The Man That Feeds Them All
TTITLE10=Papa's Billy Goat
TTITLE11=The Kickin' Mule
TTITLE12=Nancy Rowland
TTITLE13=Tom Watson Special
TTITLE14=Old And In The Way
TTITLE15=Dixie Boll Weevil
TTITLE16=When Abraham And Isaac Rushed The Can
TTITLE17=The Cat Came Back
TTITLE18=I Got Mine
TTITLE19=Dixie Cowboy
TTITLE20=John Henry Blues
TTITLE21=Arkansas Traveler
TTITLE22=Old Aunt Peggy, Won't You Set 'Em Up Again?
EXTD=
EXTT0=
EXTT1=
EXTT2=
EXTT3=
EXTT4=
EXTT5=
EXTT6=
EXTT7=
EXTT8=
EXTT9=
EXTT10=
EXTT11=
EXTT12=
EXTT13=
EXTT14=
EXTT15=
EXTT16=
EXTT17=
EXTT18=
EXTT19=
EXTT20=
EXTT21=
EXTT22=
PLAYORDER=
